<?xml version="1.0" encoding="UTF-8"?><svg id="Overview" xmlns="http://www.w3.org/2000/svg" viewBox="0 0 253.04 51.15"><defs><style>.cls-1{fill:#2f4958;}.cls-2{fill:#5cb47f;}</style></defs><path class="cls-2" d="M11.33,30.02s1.34-.11,2.03-.95c.48-.59,.8-1.83,.78-2.48l.02-8.05s7.51,.07,8.19,.07c.06,0,1.13,0,1.15,0,.74-.13,1.23-.53,1.58-.87,.29-.29,.57-.97,.58-1.44,0-.32-.01-.57,0-1.01,.11-3.45-.1-8.14-.1-8.14h11.4v11.4s-6.31,.01-8.61,.03c-.49,0-1.55,.47-1.83,.7-.26,.21-.94,.86-.94,1.38,0,2.46-.11,4.71-.11,6.79,0,.87,.04,.86,.65,1.71,.54,.75,1.92,.82,1.92,.82l8.92-.02v11.4h-11.4s.08-9.13,.08-9.13c0,0,.22-.93-.65-1.64-.79-.65-1.49-.58-1.49-.58l-6.91-.04s-1.27-.11-1.94,.6-.54,1.77-.54,1.77l.04,9.02H2.76v-11.4s8.57,.08,8.57,.08Z"/><rect class="cls-1" x="2.76" y="7.14" width="11.4" height="11.4" transform="translate(16.92 25.68) rotate(-180)"/><g><path class="cls-1" d="M58.47,37.48V12.87h3.54l1.06,4.14c1.04-1.26,2.21-2.32,3.5-3.17s2.79-1.29,4.51-1.29c.4,0,.78,.02,1.15,.07,.37,.05,.72,.12,1.06,.21v4.74c-.43-.06-.87-.12-1.33-.16-.46-.05-.94-.07-1.43-.07-1.04,0-1.98,.12-2.81,.37-.83,.25-1.62,.62-2.37,1.13-.75,.51-1.51,1.13-2.28,1.86v16.79h-4.6Z"/><path class="cls-1" d="M87.31,37.75c-2.61,0-4.68-.38-6.23-1.15-1.55-.77-2.65-2.06-3.31-3.89-.66-1.82-.99-4.35-.99-7.57s.33-5.83,.99-7.66c.66-1.82,1.76-3.1,3.29-3.84,1.53-.74,3.6-1.1,6.21-1.1,2.27,0,4.1,.24,5.5,.71,1.4,.48,2.42,1.32,3.08,2.53,.66,1.21,.99,2.89,.99,5.04,0,1.5-.3,2.7-.9,3.59-.6,.89-1.44,1.53-2.53,1.93-1.09,.4-2.38,.6-3.89,.6h-8.14c.03,1.78,.24,3.2,.62,4.25,.38,1.06,1.07,1.83,2.07,2.3,1,.48,2.46,.71,4.39,.71h7.68v2.76c-1.32,.18-2.67,.36-4.05,.53-1.38,.17-2.98,.25-4.78,.25Zm-5.98-13.71h7.77c1.23,0,2.13-.23,2.71-.69,.58-.46,.87-1.3,.87-2.53s-.18-2.19-.53-2.9c-.35-.71-.93-1.21-1.72-1.52-.8-.31-1.86-.46-3.17-.46-1.5,0-2.69,.23-3.56,.69s-1.49,1.27-1.84,2.44c-.35,1.17-.53,2.82-.53,4.97Z"/><path class="cls-1" d="M102.45,48.38V12.87h3.77l.83,2.48c.58-.43,1.28-.86,2.09-1.29,.81-.43,1.7-.79,2.67-1.08,.97-.29,1.94-.44,2.92-.44,1.56,0,2.91,.32,4.02,.97,1.12,.64,2.03,1.54,2.74,2.69,.71,1.15,1.22,2.49,1.54,4.03,.32,1.53,.48,3.17,.48,4.92,0,2.73-.3,5.04-.9,6.92-.6,1.89-1.53,3.31-2.81,4.28-1.27,.97-2.97,1.45-5.08,1.45-1.29,0-2.61-.19-3.96-.58-1.35-.38-2.59-.9-3.73-1.54v12.7h-4.6Zm10.9-14.44c1.04,0,1.98-.26,2.81-.78,.83-.52,1.49-1.42,2-2.69,.51-1.27,.76-3.04,.76-5.31,0-2.15-.26-3.87-.78-5.17-.52-1.3-1.2-2.24-2.02-2.81-.83-.57-1.73-.85-2.71-.85-1.29,0-2.46,.2-3.52,.6s-2,.81-2.83,1.24v14.03c.95,.52,1.97,.94,3.06,1.26,1.09,.32,2.17,.48,3.24,.48Z"/><path class="cls-1" d="M134.05,37.75c-1.81,0-3.3-.54-4.48-1.63-1.18-1.09-1.77-2.6-1.77-4.53v-1.93c0-1.9,.65-3.46,1.95-4.67,1.3-1.21,3.27-1.82,5.91-1.82h7.68v-2.58c0-.95-.16-1.75-.48-2.42-.32-.66-.91-1.16-1.77-1.5-.86-.34-2.13-.51-3.82-.51h-7.54v-2.71c1.1-.25,2.4-.46,3.89-.64,1.49-.18,3.23-.29,5.22-.32,2.02,0,3.72,.25,5.08,.76,1.36,.51,2.38,1.33,3.06,2.48,.67,1.15,1.01,2.68,1.01,4.58v17.16h-3.63l-.78-2.71c-.18,.12-.57,.34-1.15,.67-.58,.32-1.33,.67-2.23,1.04-.91,.37-1.89,.67-2.94,.92s-2.12,.37-3.2,.37Zm2.12-3.36c.46,.03,1-.01,1.63-.14,.63-.12,1.26-.27,1.89-.44,.63-.17,1.21-.34,1.75-.53,.54-.18,.98-.35,1.33-.48,.35-.14,.54-.22,.58-.25v-7.08l-6.44,.28c-1.6,.09-2.74,.49-3.43,1.2-.69,.71-1.03,1.63-1.03,2.76v1.1c0,.89,.18,1.6,.55,2.14,.37,.54,.83,.91,1.4,1.13,.57,.21,1.16,.32,1.77,.32Z"/><path class="cls-1" d="M161.1,37.52c-1.5,0-2.77-.26-3.8-.78-1.03-.52-1.79-1.36-2.3-2.51-.51-1.15-.76-2.71-.76-4.67V2.38h4.6V28.97c0,1.29,.13,2.28,.39,2.97,.26,.69,.63,1.17,1.1,1.45,.48,.28,1.04,.46,1.68,.55l2.3,.28v3.31h-3.22Z"/><path class="cls-1" d="M178.07,37.75c-1.87,0-3.49-.2-4.85-.6-1.36-.4-2.49-1.06-3.38-2-.89-.93-1.55-2.21-1.98-3.84-.43-1.62-.64-3.68-.64-6.16s.21-4.68,.64-6.33c.43-1.64,1.09-2.92,1.98-3.84,.89-.92,2.02-1.56,3.4-1.91,1.38-.35,2.99-.53,4.83-.53s3.45,.18,4.83,.55,2.51,1.01,3.4,1.93c.89,.92,1.55,2.2,1.98,3.84,.43,1.64,.64,3.73,.64,6.28s-.21,4.59-.64,6.23c-.43,1.64-1.08,2.92-1.96,3.84s-2,1.57-3.38,1.96-3.01,.58-4.88,.58Zm0-3.77c1.01,0,1.91-.09,2.69-.28,.78-.18,1.43-.57,1.96-1.17,.52-.6,.92-1.5,1.2-2.69,.28-1.2,.41-2.78,.41-4.74s-.14-3.53-.41-4.71c-.28-1.18-.67-2.06-1.2-2.65-.52-.58-1.17-.97-1.96-1.17-.78-.2-1.68-.3-2.69-.3s-1.96,.1-2.74,.3c-.78,.2-1.43,.59-1.93,1.17-.51,.58-.89,1.46-1.15,2.65-.26,1.18-.39,2.75-.39,4.71s.13,3.54,.39,4.74c.26,1.2,.64,2.09,1.15,2.69,.51,.6,1.15,.99,1.93,1.17,.78,.18,1.69,.28,2.74,.28Z"/><path class="cls-1" d="M200.66,48.79c-1.56,0-2.95-.22-4.16-.67-1.21-.45-2.17-1.12-2.88-2.02-.71-.91-1.06-2.02-1.06-3.33v-1.01c0-1.38,.39-2.54,1.17-3.47,.78-.93,1.77-1.65,2.97-2.14,1.2-.49,2.44-.74,3.73-.74l1.24,1.7c-.83,0-1.6,.13-2.32,.39-.72,.26-1.3,.67-1.75,1.24-.44,.57-.67,1.3-.67,2.19v.87c0,1.29,.44,2.22,1.31,2.81,.87,.58,2.08,.87,3.61,.87h5.38c1.62,0,2.91-.31,3.86-.94,.95-.63,1.43-1.6,1.43-2.92v-.87c0-.74-.16-1.38-.48-1.93-.32-.55-.84-.97-1.54-1.26-.71-.29-1.67-.44-2.9-.44h-6.81c-2.18,0-3.83-.44-4.97-1.33-1.13-.89-1.7-2.01-1.7-3.36,0-1.23,.36-2.22,1.08-2.97,.72-.75,1.74-1.26,3.06-1.54-1.1-.49-1.97-1.12-2.6-1.89-.63-.77-1.07-1.6-1.31-2.51-.25-.9-.37-1.82-.37-2.74,0-1.87,.38-3.39,1.15-4.55,.77-1.17,1.88-2.02,3.33-2.58s3.2-.83,5.22-.83h13.25v2.62l-5.01,.51c.37,.28,.77,.64,1.2,1.08,.43,.45,.8,1.05,1.1,1.82,.31,.77,.46,1.78,.46,3.04s-.28,2.55-.85,3.68c-.57,1.13-1.49,2.05-2.76,2.76-1.27,.71-3,1.06-5.17,1.06h-4.05c-1.17,0-2.09,.17-2.76,.51-.67,.34-1.01,.94-1.01,1.79,0,.71,.26,1.2,.78,1.47,.52,.28,1.07,.41,1.66,.41h7.77c1.87,0,3.44,.25,4.71,.74,1.27,.49,2.23,1.24,2.88,2.25s.97,2.33,.97,3.96v.87c0,2.33-.76,4.15-2.28,5.45-1.52,1.3-3.81,1.96-6.88,1.96h-7.04Zm2.02-22.95h2.71c1.38,0,2.43-.21,3.15-.62,.72-.41,1.22-.96,1.5-1.63,.28-.67,.41-1.43,.41-2.25,0-1.23-.2-2.2-.6-2.92-.4-.72-.94-1.24-1.63-1.56-.69-.32-1.53-.48-2.51-.48h-2.58c-1.56,0-2.78,.35-3.66,1.06s-1.31,1.92-1.31,3.63,.4,2.91,1.2,3.66c.8,.75,1.9,1.13,3.31,1.13Z"/><path class="cls-1" d="M221.77,8.73c-.55,0-.83-.26-.83-.78v-3.86c0-.55,.28-.83,.83-.83h3.4c.25,0,.43,.08,.55,.23,.12,.15,.18,.35,.18,.6v3.86c0,.52-.25,.78-.74,.78h-3.4Zm-.64,28.75V12.87h4.6v24.61h-4.6Z"/><path class="cls-1" d="M241.32,37.75c-1.44,0-2.77-.19-3.98-.58-1.21-.38-2.27-1.04-3.17-1.96-.91-.92-1.6-2.19-2.09-3.82-.49-1.62-.74-3.68-.74-6.16s.23-4.64,.69-6.28,1.13-2.93,2-3.86,1.94-1.59,3.2-1.96c1.26-.37,2.67-.55,4.23-.55,1.29,0,2.65,.06,4.07,.18,1.43,.12,2.81,.32,4.16,.6v2.71h-6.95c-1.5,0-2.76,.24-3.77,.71-1.01,.48-1.76,1.38-2.25,2.71-.49,1.33-.74,3.26-.74,5.77s.26,4.29,.78,5.59,1.28,2.18,2.28,2.64c1,.46,2.25,.69,3.75,.69h7.27v2.62c-.71,.18-1.54,.34-2.51,.48-.97,.14-1.98,.25-3.04,.32-1.06,.08-2.12,.12-3.2,.12Z"/></g></svg>